<svg xmlns="http://www.w3.org/2000/svg" width="1700" height="1080" viewBox="0 0 1700 1080" role="img" aria-labelledby="title desc">
  <title id="title">Baby Droid Chassis Wiring Diagram</title>
  <desc id="desc">Single connected wiring diagram showing a 2S LiPo battery, an SPST switch, a Hobbywing 3A UBEC set to 6 volts for three FEETECH FS90R servos, a bulk capacitor across the 6 volt servo rail, an LM2596 buck converter set to 5 volts for logic power, a Schottky diode on the XIAO 5V branch, a resistor divider and optional filter capacitor for battery sensing into XIAO D0 GPIO0, a XIAO ESP32C6, a DFPlayer Mini MP3 module, and an 8 ohm mono speaker. The diagram shows the switched battery rail, common ground rail, regulated 6 volt servo rail, regulated 5 volt logic feed, UART wiring, battery sense wiring, and speaker outputs.</desc>

  <defs>
    <style>
      .title { font: 24px monospace; font-weight: 700; fill: #111827; }
      .label { font: 18px monospace; fill: #1f2937; }
      .small { font: 15px monospace; fill: #374151; }
      .pin { font: 16px monospace; fill: #111827; }
      .box { fill: #ffffff; stroke: #111827; stroke-width: 2.5; rx: 10; ry: 10; }
      .railbat { stroke: #92400e; stroke-width: 6; fill: none; }
      .rail6 { stroke: #c2410c; stroke-width: 6; fill: none; }
      .gnd { stroke: #111827; stroke-width: 6; fill: none; }
      .pwr5 { stroke: #2563eb; stroke-width: 4; fill: none; }
      .sig0 { stroke: #059669; stroke-width: 4; fill: none; }
      .sig1 { stroke: #7c3aed; stroke-width: 4; fill: none; }
      .sig2 { stroke: #dc2626; stroke-width: 4; fill: none; }
      .uarttx { stroke: #0f766e; stroke-width: 4; fill: none; }
      .uartrx { stroke: #a16207; stroke-width: 4; fill: none; }
      .audio { stroke: #6b7280; stroke-width: 4; fill: none; }
      .sense { stroke: #0284c7; stroke-width: 4; fill: none; }
      .dropbat { stroke: #92400e; stroke-width: 4; fill: none; }
      .drop6 { stroke: #c2410c; stroke-width: 4; fill: none; }
      .dropg { stroke: #111827; stroke-width: 4; fill: none; }
      .passive { fill: #ffffff; stroke: #6b7280; stroke-width: 2; }
      .passive5 { fill: #ffffff; stroke: #2563eb; stroke-width: 2.5; }
      .dotbat { fill: #92400e; }
      .dot6 { fill: #c2410c; }
      .dotg { fill: #111827; }
      .dot5 { fill: #2563eb; }
      .dots { fill: #6b7280; }
      .dots0 { fill: #059669; }
      .dots1 { fill: #7c3aed; }
      .dots2 { fill: #dc2626; }
      .dottx { fill: #0f766e; }
      .dotrx { fill: #a16207; }
      .dotsense { fill: #0284c7; }
    </style>
  </defs>

  <text x="36" y="42" class="title">Baby Droid Chassis Wiring Diagram</text>

  <rect x="40" y="110" width="200" height="120" class="box"/>
  <text x="70" y="150" class="label">2S LIPO BATTERY</text>
  <text x="84" y="182" class="small">7.4V nominal</text>
  <text x="92" y="208" class="small">8.4V full</text>
  <circle cx="240" cy="170" r="5.5" class="dotbat"/>
  <circle cx="120" cy="230" r="5.5" class="dotg"/>

  <rect x="300" y="130" width="170" height="80" class="box"/>
  <text x="332" y="174" class="label">SPST SWITCH</text>
  <line x1="240" y1="170" x2="320" y2="170" class="dropbat"/>
  <circle cx="320" cy="170" r="5.5" class="dotbat"/>
  <circle cx="356" cy="170" r="5.5" class="dotbat"/>
  <line x1="356" y1="170" x2="392" y2="148" class="dropbat"/>
  <line x1="410" y1="170" x2="430" y2="170" class="dropbat"/>
  <circle cx="410" cy="170" r="5.5" class="dotbat"/>

  <path d="M430 170 H860" class="railbat"/>
  <text x="520" y="148" class="label">switched 2S LiPo + rail</text>

  <line x1="790" y1="170" x2="790" y2="188" class="dropbat"/>
  <rect x="778" y="188" width="24" height="24" class="passive"/>
  <line x1="790" y1="212" x2="790" y2="230" class="sense"/>
  <circle cx="790" cy="230" r="5.5" class="dotsense"/>
  <line x1="790" y1="230" x2="790" y2="253" class="sense"/>
  <rect x="778" y="253" width="24" height="24" class="passive"/>
  <line x1="790" y1="277" x2="790" y2="300" class="dropg"/>
  <circle cx="790" cy="300" r="5.5" class="dotg"/>
  <text x="818" y="202" class="small">47k</text>
  <text x="818" y="269" class="small">22k</text>

  <line x1="790" y1="230" x2="745" y2="230" class="sense"/>
  <line x1="745" y1="230" x2="745" y2="261" class="sense"/>
  <line x1="735" y1="261" x2="755" y2="261" class="sense"/>
  <line x1="735" y1="269" x2="755" y2="269" class="sense"/>
  <line x1="745" y1="269" x2="745" y2="300" class="dropg"/>
  <circle cx="745" cy="300" r="5.5" class="dotg"/>
  <text x="818" y="286" class="small">opt 100nF</text>

  <line x1="120" y1="230" x2="120" y2="300" class="dropg"/>
  <circle cx="120" cy="300" r="5.5" class="dotg"/>
  <path d="M120 300 H1270" class="gnd"/>
  <text x="520" y="328" class="label">common ground rail</text>

  <rect x="500" y="340" width="280" height="180" class="box"/>
  <text x="562" y="380" class="label">LM2596 BUCK</text>
  <text x="548" y="475" class="small">set output to 5.0V before wiring XIAO</text>
  <text x="528" y="355" class="pin">IN+</text>
  <circle cx="500" cy="350" r="5.5" class="dotbat"/>
  <text x="528" y="405" class="pin">IN-</text>
  <circle cx="500" cy="400" r="5.5" class="dotg"/>
  <text x="688" y="355" class="pin">OUT+</text>
  <circle cx="780" cy="350" r="5.5" class="dot5"/>
  <text x="688" y="405" class="pin">OUT-</text>
  <circle cx="780" cy="400" r="5.5" class="dotg"/>

  <line x1="470" y1="170" x2="470" y2="350" class="dropbat"/>
  <line x1="470" y1="350" x2="500" y2="350" class="dropbat"/>
  <circle cx="470" cy="170" r="5.5" class="dotbat"/>

  <line x1="450" y1="300" x2="450" y2="400" class="dropg"/>
  <line x1="450" y1="400" x2="500" y2="400" class="dropg"/>
  <circle cx="450" cy="300" r="5.5" class="dotg"/>

  <rect x="860" y="90" width="320" height="170" class="box"/>
  <text x="916" y="128" class="label">HOBBYWING 3A UBEC</text>
  <text x="930" y="238" class="small">set output to 6.0V before wiring servos</text>
  <text x="892" y="175" class="pin">IN+</text>
  <circle cx="860" cy="170" r="5.5" class="dotbat"/>
  <text x="892" y="215" class="pin">IN-</text>
  <circle cx="860" cy="210" r="5.5" class="dotg"/>
  <text x="1088" y="175" class="pin">OUT+</text>
  <circle cx="1180" cy="170" r="5.5" class="dot6"/>
  <text x="1088" y="215" class="pin">OUT-</text>
  <circle cx="1180" cy="210" r="5.5" class="dotg"/>

  <line x1="810" y1="300" x2="810" y2="210" class="dropg"/>
  <line x1="810" y1="210" x2="860" y2="210" class="dropg"/>
  <circle cx="810" cy="300" r="5.5" class="dotg"/>

  <line x1="1180" y1="210" x2="1180" y2="300" class="dropg"/>
  <circle cx="1180" cy="300" r="5.5" class="dotg"/>

  <line x1="1180" y1="170" x2="1180" y2="130" class="drop6"/>
  <line x1="1180" y1="130" x2="1290" y2="130" class="rail6"/>
  <circle cx="1180" cy="130" r="5.5" class="dot6"/>
  <circle cx="1290" cy="130" r="5.5" class="dot6"/>
  <text x="1190" y="106" class="label">regulated 6V servo rail</text>

  <line x1="1230" y1="130" x2="1230" y2="186" class="drop6"/>
  <rect x="1218" y="186" width="24" height="36" class="passive"/>
  <line x1="1230" y1="222" x2="1230" y2="300" class="dropg"/>
  <circle cx="1230" cy="130" r="5.5" class="dot6"/>
  <circle cx="1230" cy="300" r="5.5" class="dotg"/>
  <text x="1248" y="198" class="small">bulk cap</text>
  <text x="1248" y="216" class="small">470uF-1000uF</text>

  <rect x="860" y="300" width="320" height="460" class="box"/>
  <text x="930" y="340" class="label">XIAO ESP32C6</text>
  <text x="892" y="355" class="pin">5V</text>
  <circle cx="860" cy="350" r="5.5" class="dot5"/>
  <text x="892" y="405" class="pin">GND</text>
  <circle cx="860" cy="400" r="5.5" class="dotg"/>
  <text x="930" y="435" class="pin">D10 / GPIO18 PWM OUT</text>
  <circle cx="1180" cy="430" r="5.5" class="dots0"/>
  <text x="930" y="555" class="pin">D9 / GPIO20 PWM OUT</text>
  <circle cx="1180" cy="550" r="5.5" class="dots1"/>
  <text x="892" y="615" class="pin">D0 / GPIO0 ADC IN</text>
  <text x="892" y="638" class="small">header pin</text>
  <circle cx="860" cy="610" r="5.5" class="dotsense"/>
  <text x="930" y="675" class="pin">D8 / GPIO19 PWM OUT</text>
  <circle cx="1180" cy="670" r="5.5" class="dots2"/>
  <text x="900" y="720" class="pin">D6 / GPIO16 TX</text>
  <circle cx="960" cy="760" r="5.5" class="dottx"/>
  <text x="1040" y="720" class="pin">D7 / GPIO17 RX</text>
  <circle cx="1080" cy="760" r="5.5" class="dotrx"/>

  <line x1="780" y1="350" x2="808" y2="350" class="pwr5"/>
  <rect x="808" y="334" width="34" height="32" class="passive5"/>
  <text x="818" y="355" class="small">D</text>
  <text x="788" y="320" class="small">Schottky diode</text>
  <text x="786" y="338" class="small">cathode to XIAO</text>
  <line x1="842" y1="350" x2="860" y2="350" class="pwr5"/>

  <line x1="780" y1="400" x2="860" y2="400" class="dropg"/>
  <circle cx="800" cy="400" r="5.5" class="dotg"/>

  <line x1="790" y1="230" x2="485" y2="230" class="sense"/>
  <line x1="485" y1="230" x2="485" y2="610" class="sense"/>
  <line x1="485" y1="610" x2="860" y2="610" class="sense"/>

  <rect x="1320" y="350" width="260" height="110" class="box"/>
  <text x="1386" y="385" class="label">LEFT SERVO</text>
  <text x="1348" y="385" class="pin">V+</text>
  <circle cx="1320" cy="380" r="5.5" class="dot6"/>
  <text x="1348" y="415" class="pin">GND</text>
  <circle cx="1320" cy="410" r="5.5" class="dotg"/>
  <text x="1348" y="435" class="pin">SIG</text>
  <circle cx="1320" cy="430" r="5.5" class="dots0"/>

  <rect x="1320" y="470" width="260" height="110" class="box"/>
  <text x="1378" y="505" class="label">RIGHT SERVO</text>
  <text x="1348" y="505" class="pin">V+</text>
  <circle cx="1320" cy="500" r="5.5" class="dot6"/>
  <text x="1348" y="535" class="pin">GND</text>
  <circle cx="1320" cy="530" r="5.5" class="dotg"/>
  <text x="1348" y="555" class="pin">SIG</text>
  <circle cx="1320" cy="550" r="5.5" class="dots1"/>

  <rect x="1320" y="590" width="260" height="110" class="box"/>
  <text x="1386" y="625" class="label">DOME SERVO</text>
  <text x="1348" y="625" class="pin">V+</text>
  <circle cx="1320" cy="620" r="5.5" class="dot6"/>
  <text x="1348" y="655" class="pin">GND</text>
  <circle cx="1320" cy="650" r="5.5" class="dotg"/>
  <text x="1348" y="675" class="pin">SIG</text>
  <circle cx="1320" cy="670" r="5.5" class="dots2"/>

  <line x1="1290" y1="130" x2="1290" y2="380" class="drop6"/>
  <line x1="1290" y1="380" x2="1320" y2="380" class="drop6"/>
  <line x1="1270" y1="300" x2="1270" y2="410" class="dropg"/>
  <line x1="1270" y1="410" x2="1320" y2="410" class="dropg"/>

  <line x1="1290" y1="130" x2="1290" y2="500" class="drop6"/>
  <line x1="1290" y1="500" x2="1320" y2="500" class="drop6"/>
  <line x1="1270" y1="300" x2="1270" y2="530" class="dropg"/>
  <line x1="1270" y1="530" x2="1320" y2="530" class="dropg"/>

  <line x1="1290" y1="130" x2="1290" y2="620" class="drop6"/>
  <line x1="1290" y1="620" x2="1320" y2="620" class="drop6"/>
  <line x1="1270" y1="300" x2="1270" y2="650" class="dropg"/>
  <line x1="1270" y1="650" x2="1320" y2="650" class="dropg"/>

  <line x1="1180" y1="430" x2="1320" y2="430" class="sig0"/>
  <line x1="1180" y1="550" x2="1320" y2="550" class="sig1"/>
  <line x1="1180" y1="670" x2="1320" y2="670" class="sig2"/>

  <rect x="860" y="820" width="320" height="170" class="box"/>
  <text x="930" y="860" class="label">DFPLAYER MINI</text>
  <text x="892" y="855" class="pin">VCC</text>
  <circle cx="860" cy="850" r="5.5" class="dot5"/>
  <text x="892" y="895" class="pin">GND</text>
  <circle cx="860" cy="890" r="5.5" class="dotg"/>
  <text x="926" y="848" class="pin">RX</text>
  <circle cx="960" cy="820" r="5.5" class="dottx"/>
  <text x="1046" y="848" class="pin">TX</text>
  <circle cx="1080" cy="820" r="5.5" class="dotrx"/>
  <text x="1110" y="870" class="pin">SPK1</text>
  <circle cx="1180" cy="865" r="5.5" class="dots"/>
  <text x="1110" y="910" class="pin">SPK2</text>
  <circle cx="1180" cy="905" r="5.5" class="dots"/>

  <line x1="850" y1="350" x2="850" y2="850" class="pwr5"/>
  <line x1="850" y1="850" x2="860" y2="850" class="pwr5"/>
  <circle cx="850" cy="350" r="5.5" class="dot5"/>

  <line x1="800" y1="400" x2="800" y2="890" class="dropg"/>
  <line x1="800" y1="890" x2="860" y2="890" class="dropg"/>

  <line x1="960" y1="760" x2="960" y2="778" class="uarttx"/>
  <rect x="950" y="778" width="20" height="18" class="passive"/>
  <line x1="960" y1="796" x2="960" y2="820" class="uarttx"/>
  <text x="930" y="790" class="small">1k</text>

  <line x1="1080" y1="760" x2="1080" y2="820" class="uartrx"/>

  <rect x="1330" y="830" width="220" height="110" class="box"/>
  <text x="1370" y="870" class="label">8OHM MONO</text>
  <text x="1390" y="898" class="label">SPEAKER</text>
  <circle cx="1330" cy="865" r="5.5" class="dots"/>
  <circle cx="1330" cy="905" r="5.5" class="dots"/>

  <line x1="1180" y1="865" x2="1330" y2="865" class="audio"/>
  <line x1="1180" y1="905" x2="1330" y2="905" class="audio"/>
</svg>
